<svg width="32" height="32" viewBox="0 0 32 32" fill="none" xmlns="http://www.w3.org/2000/svg">
<g clip-path="url(#clip0_9_424)">
<path d="M30.0437 31.7883C31.0071 31.7883 31.7883 31.0071 31.7883 30.0436V1.92044C31.7883 0.95661 31.0071 0.175781 30.0437 0.175781H1.92049C0.956656 0.175781 0.175827 0.95661 0.175827 1.92044V30.0436C0.175827 31.0071 0.956656 31.7883 1.92049 31.7883H30.0437Z" fill="#3C5A99"/>
<path d="M18.0601 29.4012V17.1591H22.1693L22.7847 12.388H18.0604V9.34201C18.0604 7.96054 18.444 7.01954 20.4247 7.01954L22.9512 7.01849V2.75115C22.5143 2.69284 21.0148 2.56323 19.2698 2.56323C15.6273 2.56323 13.1334 4.78664 13.1334 8.86957V12.388H9.01328V17.1591H13.1331V29.4012H18.0601Z" fill="white"/>
</g>
<defs>
<clipPath id="clip0_9_424">
<rect width="32" height="32" fill="white"/>
</clipPath>
</defs>
</svg>
